<svg width="160" height="38" viewBox="0 0 160 38" fill="none" xmlns="http://www.w3.org/2000/svg">
<g clip-path="url(#clip0_2012_696)">
<path fill-rule="evenodd" clip-rule="evenodd" d="M0 17.2426C0 23.8325 0.349236 27.7865 5.38821 32.7167C8.63112 35.9384 13.1213 37.6469 17.7113 37.9886H21.1038C26.4422 37.5981 31.531 35.3527 34.724 31.3987C35.5223 30.3248 37.0689 28.4211 37.1687 26.9566C35.2229 26.4685 34.0755 24.3695 32.1796 24.3695C30.4833 24.3695 28.4877 31.8381 19.6071 31.8381C4.3904 31.8381 2.29498 12.2636 13.8198 7.38217C18.1603 5.57604 22.85 5.86893 26.5918 8.40727C27.6894 9.13948 28.4378 9.72525 29.1862 10.7503C31.1818 13.5328 29.9345 12.1171 31.8803 12.9958C33.4269 11.9707 34.9236 10.7992 36.5201 9.77406C33.377 3.91636 27.4899 0.0112305 20.2557 0.0112305H17.9108C8.63112 0.0112305 0 8.16319 0 17.2426Z" fill="white"/>
<path fill-rule="evenodd" clip-rule="evenodd" d="M90.3025 16.5592C90.3025 19.8298 90.5519 20.3667 95.0421 21.0013C98.3349 21.4406 99.682 20.4644 101.229 22.7586C100.43 25.5898 96.3393 25.1505 93.9445 24.0278C92.8968 23.5885 89.7038 21.4406 89.604 25.6875C90.9012 25.9804 91.9489 26.6149 93.246 26.9566C105.469 30.3248 107.714 20.1227 100.73 18.7071C97.4369 18.0237 96.5887 19.0976 93.5953 17.5355C93.8447 16.5592 93.695 16.608 94.4434 16.1199C95.9401 15.1436 98.3349 15.7294 99.7817 16.364C101.079 16.9497 101.129 17.4867 102.875 17.5355C103.174 16.3152 103.573 16.1687 103.873 14.9484C99.682 12.7517 99.8815 12.9958 94.9423 12.9958C92.6473 12.9958 90.3025 14.4114 90.3025 16.5592Z" fill="white"/>
<path fill-rule="evenodd" clip-rule="evenodd" d="M73.6888 27.2983H88.3068V24.7112H77.0315V20.8061H83.9663V18.2189H77.0315V15.5829H87.6084V12.9958H73.6888V27.2983Z" fill="white"/>
<path fill-rule="evenodd" clip-rule="evenodd" d="M40.1622 27.2983H54.7802V24.7112H43.5048V20.8061H50.4397V18.2189H43.5048V15.5829H54.0817V12.9958H40.1622V27.2983Z" fill="white"/>
<path fill-rule="evenodd" clip-rule="evenodd" d="M136.102 18.2189C137.1 18.9023 137.499 20.3667 138.098 21.4406H134.755C135.104 20.025 135.753 19.6345 136.102 18.2189ZM128.12 27.2983C132.111 27.2983 131.213 27.4936 132.161 26.0292C132.56 25.3946 132.859 24.9553 133.109 24.0278H139.395C140.044 25.1993 140.742 25.8827 141.091 27.2983H144.733C144.534 25.1993 138.148 14.4602 137.749 12.9958H135.104C133.857 14.8507 128.17 25.541 128.12 27.2983Z" fill="white"/>
<path fill-rule="evenodd" clip-rule="evenodd" d="M105.868 15.5829H111.855V27.2983H115.198V15.5829H120.836V12.9958H105.868V15.5829Z" fill="white"/>
<path fill-rule="evenodd" clip-rule="evenodd" d="M57.7736 27.2983H71.3439V24.7112H61.0664V12.9958H57.7736V27.2983Z" fill="white"/>
<path fill-rule="evenodd" clip-rule="evenodd" d="M146.38 27.2983H160V24.7112H149.722V12.9958H146.38V27.2983Z" fill="white"/>
<path fill-rule="evenodd" clip-rule="evenodd" d="M39.8129 37.3541C53.7824 37.3541 47.995 37.6469 51.4375 35.4015C52.2856 35.9384 52.585 36.573 53.0839 37.3541H55.4288C55.0795 36.1337 54.1316 35.792 52.7845 33.7906C54.0318 31.9357 55.1294 31.3987 55.4288 30.2272C51.4874 30.2272 53.3832 30.7642 51.4375 32.1798C50.6392 31.6428 50.3399 31.0082 49.7911 30.2272H47.4462C47.7955 31.4475 48.7434 31.7892 50.1403 33.7906C49.6913 34.4252 48.3941 35.9873 47.7954 36.3778C47.7456 36.3778 47.6957 36.329 47.6957 36.3778L45.5005 36.0361C44.3031 36.0361 43.0558 36.0361 41.8085 36.0361V34.1323H45.1512V32.8143H41.8085V31.4964H47.1469V30.2272H39.8129V37.3541Z" fill="white"/>
<path fill-rule="evenodd" clip-rule="evenodd" d="M122.831 27.2983H126.124V12.9958H122.831V27.2983Z" fill="white"/>
<path fill-rule="evenodd" clip-rule="evenodd" d="M78.9772 33.156H76.6823V31.4964C79.2267 31.4964 78.5282 31.3499 80.6735 31.8381V32.8143C79.9252 32.9608 79.8753 33.156 78.9772 33.156ZM74.6866 37.3541H76.6823V34.4252H78.9772C79.2766 35.4503 80.1247 36.3778 80.6735 37.3541H82.6692C82.3698 36.2313 81.821 35.6944 81.3221 34.7669C82.5195 33.0096 83.1182 32.8632 81.9707 30.5201C79.4762 29.9831 77.6801 30.2272 74.6866 30.2272V37.3541Z" fill="white"/>
<path fill-rule="evenodd" clip-rule="evenodd" d="M65.7063 37.3541H73.3396V36.0361H67.7019V34.1323H71.0446V32.8143H67.7019V31.4964H73.0402V30.2272H65.7063V37.3541Z" fill="white"/>
<path fill-rule="evenodd" clip-rule="evenodd" d="M61.4157 33.156H58.4222V31.4964H61.4157C62.3137 31.4964 62.3636 31.9845 62.7128 32.4726C62.1141 32.8632 62.164 33.156 61.4157 33.156ZM56.4266 37.3541H58.4222V34.4252C61.266 34.4252 61.6651 34.6693 64.0599 34.1323C65.2074 29.3974 64.01 30.2272 56.4266 30.2272V37.3541Z" fill="white"/>
<path fill-rule="evenodd" clip-rule="evenodd" d="M82.6692 31.4964H85.6127V37.3541H87.6084V31.4964H90.3025V30.2272H82.6692V31.4964Z" fill="white"/>
</g>
<defs>
<clipPath id="clip0_2012_696">
<rect width="160" height="38" fill="white"/>
</clipPath>
</defs>
</svg>
