<svg width="171" height="41" viewBox="0 0 171 41" fill="none" xmlns="http://www.w3.org/2000/svg">
<g clip-path="url(#clip0_2012_1149)">
<path fill-rule="evenodd" clip-rule="evenodd" d="M0 18.604C0 25.7141 0.373246 29.9802 5.75865 35.2997C9.22451 38.7758 14.0234 40.6192 18.9289 40.9878H22.5547C28.2601 40.5665 33.6988 38.1438 37.1113 33.8777C37.9645 32.719 39.6174 30.6649 39.724 29.0849C37.6445 28.5582 36.4181 26.2935 34.392 26.2935C32.579 26.2935 30.4462 34.3517 20.9551 34.3517C4.69224 34.3517 2.45276 13.2319 14.7699 7.96506C19.4088 6.01635 24.421 6.33236 28.42 9.07109C29.5931 9.86111 30.3929 10.4931 31.1927 11.5991C33.3255 14.6012 31.9925 13.0738 34.072 14.0219C35.725 12.9158 37.3246 11.6518 39.0309 10.5458C35.6717 4.22564 29.3798 0.012207 21.6483 0.012207H19.1422C9.22451 0.012207 0 8.80775 0 18.604Z" fill="white"/>
<path fill-rule="evenodd" clip-rule="evenodd" d="M96.5108 17.8666C96.5108 21.3954 96.7774 21.9747 101.576 22.6594C105.095 23.1334 106.535 22.0801 108.188 24.5555C107.335 27.6102 102.963 27.1362 100.403 25.9248C99.2834 25.4508 95.8709 23.1334 95.7643 27.7155C97.1506 28.0315 98.2704 28.7162 99.6567 29.0849C112.72 32.719 115.12 21.7114 107.655 20.184C104.136 19.4467 103.229 20.6054 100.03 18.92C100.297 17.8666 100.137 17.9193 100.936 17.3926C102.536 16.3393 105.095 16.9713 106.642 17.656C108.028 18.288 108.081 18.8673 109.948 18.92C110.268 17.6033 110.694 17.4453 111.014 16.1286C106.535 13.7585 106.748 14.0219 101.47 14.0219C99.0168 14.0219 96.5108 15.5492 96.5108 17.8666Z" fill="white"/>
<path fill-rule="evenodd" clip-rule="evenodd" d="M78.7549 29.4536H94.3779V26.6622H82.3274V22.4487H89.739V19.6573H82.3274V16.8133H93.6314V14.0219H78.7549V29.4536Z" fill="white"/>
<path fill-rule="evenodd" clip-rule="evenodd" d="M42.9233 29.4536H58.5463V26.6622H46.4958V22.4487H53.9074V19.6573H46.4958V16.8133H57.7998V14.0219H42.9233V29.4536Z" fill="white"/>
<path fill-rule="evenodd" clip-rule="evenodd" d="M145.459 19.6573C146.526 20.3947 146.952 21.9747 147.592 23.1334H144.02C144.393 21.6061 145.086 21.1847 145.459 19.6573ZM136.928 29.4536C141.194 29.4536 140.234 29.6642 141.247 28.0842C141.674 27.3995 141.993 26.9255 142.26 25.9248H148.978C149.672 27.1888 150.418 27.9262 150.791 29.4536H154.684C154.471 27.1888 147.645 15.6019 147.219 14.0219H144.393C143.06 16.0233 136.981 27.5575 136.928 29.4536Z" fill="white"/>
<path fill-rule="evenodd" clip-rule="evenodd" d="M113.147 16.8133H119.545V29.4536H123.118V16.8133H129.143V14.0219H113.147V16.8133Z" fill="white"/>
<path fill-rule="evenodd" clip-rule="evenodd" d="M61.7456 29.4536H76.2488V26.6622H65.2647V14.0219H61.7456V29.4536Z" fill="white"/>
<path fill-rule="evenodd" clip-rule="evenodd" d="M156.443 29.4536H171V26.6622H160.016V14.0219H156.443V29.4536Z" fill="white"/>
<path fill-rule="evenodd" clip-rule="evenodd" d="M42.55 40.3032C57.4799 40.3032 51.2947 40.6192 54.9738 38.1964C55.8803 38.7758 56.2002 39.4605 56.7334 40.3032H59.2395C58.8662 38.9865 57.8531 38.6178 56.4135 36.4584C57.7465 34.457 58.9196 33.8777 59.2395 32.6136C55.0271 32.6136 57.0533 33.193 54.9738 34.7204C54.1207 34.141 53.8007 33.4563 53.2142 32.6136H50.7081C51.0814 33.9303 52.0945 34.299 53.5875 36.4584C53.1076 37.1431 51.7212 38.8285 51.0814 39.2498C51.0281 39.2498 50.9747 39.1971 50.9747 39.2498L48.6286 38.8811C47.3489 38.8811 46.0159 38.8811 44.6829 38.8811V36.8271H48.2554V35.405H44.6829V33.983H50.3882V32.6136H42.55V40.3032Z" fill="white"/>
<path fill-rule="evenodd" clip-rule="evenodd" d="M131.276 29.4536H134.795V14.0219H131.276V29.4536Z" fill="white"/>
<path fill-rule="evenodd" clip-rule="evenodd" d="M84.4069 35.7737H81.9542V33.983C84.6735 33.983 83.927 33.825 86.2198 34.3517V35.405C85.42 35.563 85.3667 35.7737 84.4069 35.7737ZM79.8213 40.3032H81.9542V37.1431H84.4069C84.7269 38.2491 85.6333 39.2498 86.2198 40.3032H88.3527C88.0327 39.0918 87.4462 38.5125 86.913 37.5118C88.1927 35.6157 88.8326 35.4577 87.6062 32.9297C84.9401 32.3503 83.0206 32.6136 79.8213 32.6136V40.3032Z" fill="white"/>
<path fill-rule="evenodd" clip-rule="evenodd" d="M70.2236 40.3032H78.3817V38.8811H72.3564V36.8271H75.9289V35.405H72.3564V33.983H78.0617V32.6136H70.2236V40.3032Z" fill="white"/>
<path fill-rule="evenodd" clip-rule="evenodd" d="M65.638 35.7737H62.4387V33.983H65.638C66.5978 33.983 66.6511 34.5097 67.0243 35.0364C66.3845 35.4577 66.4378 35.7737 65.638 35.7737ZM60.3059 40.3032H62.4387V37.1431C65.478 37.1431 65.9046 37.4064 68.464 36.8271C69.6904 31.7183 68.4107 32.6136 60.3059 32.6136V40.3032Z" fill="white"/>
<path fill-rule="evenodd" clip-rule="evenodd" d="M88.3527 33.983H91.4986V40.3032H93.6314V33.983H96.5108V32.6136H88.3527V33.983Z" fill="white"/>
</g>
<defs>
<clipPath id="clip0_2012_1149">
<rect width="171" height="41" fill="white"/>
</clipPath>
</defs>
</svg>
