<svg width="30" height="30" viewBox="0 0 30 30" fill="none" xmlns="http://www.w3.org/2000/svg">
<path d="M9.43845 1H5C2.79086 1 1 2.79086 1 5V9C1 20.0457 9.9543 29 21 29H25C27.2091 29 29 27.2091 29 25V22.2361C29 21.4785 28.572 20.786 27.8944 20.4472L23.0626 18.0313C21.974 17.487 20.6557 18.033 20.2708 19.1877L19.6752 20.9743C19.2895 22.1316 18.1024 22.8205 16.9062 22.5812C12.1186 21.6237 8.37628 17.8814 7.41877 13.0938C7.17953 11.8976 7.86845 10.7105 9.02572 10.3248L11.243 9.58567C12.2344 9.25519 12.8043 8.21711 12.5508 7.20324L11.3787 2.51493C11.1561 1.62459 10.3562 1 9.43845 1Z" stroke="white" stroke-width="2"/>
</svg>
