<svg width="30" height="30" viewBox="0 0 30 30" fill="none" xmlns="http://www.w3.org/2000/svg">
<path d="M29.5 15C29.5 23.0081 23.0081 29.5 15 29.5C6.99187 29.5 0.5 23.0081 0.5 15C0.5 6.99187 6.99187 0.5 15 0.5C23.0081 0.5 29.5 6.99187 29.5 15Z" stroke="white"/>
<path fill-rule="evenodd" clip-rule="evenodd" d="M15.2644 17.0324L16.3148 17.0337C16.3148 18.0192 16.3058 19.0091 16.319 19.9941C16.3222 20.2331 16.3251 20.4753 16.3397 20.7133C16.3756 21.2959 16.6264 21.8871 16.9807 22.2748C17.3212 22.6474 17.8912 22.9776 18.4666 22.9963C18.6961 23.0037 18.9412 22.9999 19.1698 22.9857C19.4218 22.9701 19.555 22.9319 19.7556 22.8369C20.1267 22.6611 20.3344 22.4919 20.5819 22.1989C20.6492 22.1193 20.7339 21.9787 20.8105 21.8803C20.8245 21.8622 20.8378 21.8468 20.8505 21.8291C20.8709 21.8004 20.8676 21.7946 20.9049 21.787C20.9651 22.0112 20.9926 22.2213 21.0295 22.4609C21.0921 22.8669 21.0518 22.8307 21.4303 22.8448C21.6809 22.8542 21.9492 22.8437 22.2011 22.8392C22.3256 22.837 22.8912 22.834 22.964 22.8246C22.9805 22.7567 22.9972 21.8276 23 21.6781L22.0662 21.6766C22.0553 21.6083 22.0231 20.3347 22.0209 20.238C21.9871 18.7649 21.9955 17.2783 21.9955 15.8046L19.576 15.8045L19.578 17.0324L20.7858 17.0343C20.7858 17.9163 20.7961 18.8086 20.7662 19.6895C20.7564 19.9803 20.7542 20.2174 20.6729 20.4807C20.526 20.9565 20.2421 21.3106 19.9484 21.5308C19.6221 21.7754 19.1099 21.9744 18.5871 21.8541C18.3718 21.8046 18.1577 21.6941 18.0125 21.5445C17.9502 21.4804 17.8749 21.3801 17.8168 21.2925C17.7592 21.2057 17.7068 21.1156 17.6697 20.9995C17.5411 20.5981 17.5518 19.8059 17.5456 19.3452C17.5296 18.1681 17.5264 16.9888 17.5192 15.8111C17.476 15.795 15.4895 15.8045 15.2628 15.8045L15.2644 17.0324ZM6 22.8527H7.27267L7.23697 21.6514L6.03155 21.6513L6 22.8527ZM8.45106 16.8977L9.57775 16.9309C9.59238 16.9905 9.5819 19.1815 9.5819 19.3035C9.5819 19.3707 9.58958 21.6054 9.57923 21.677L8.42472 21.6781C8.42472 21.9033 8.40303 22.6402 8.45717 22.8079C8.50329 22.8693 12.6787 22.8527 13.4553 22.8527C13.5439 22.8527 13.7104 22.8623 13.7898 22.8493V21.6815L10.7952 21.678C10.7839 21.6167 10.7889 20.0851 10.7894 19.9877C10.7916 19.5051 10.7799 18.8417 10.9113 18.4067C10.9706 18.2105 11.0795 17.981 11.1777 17.8261C11.2629 17.6916 11.3495 17.5829 11.4529 17.4711C11.5932 17.3193 11.8549 17.1082 12.0732 17.0329C12.2218 16.9817 12.5988 16.8633 12.7592 16.8743C12.8059 16.9985 12.7859 17.2516 12.7801 17.4012C12.7757 17.5157 12.7429 17.852 12.7581 17.9401L13.9447 17.9402L13.9477 15.8055C13.7449 15.796 13.0344 15.8027 12.8305 15.816C12.2617 15.8531 11.8278 16.0184 11.4067 16.3646C11.2583 16.4867 11.0953 16.6446 10.9692 16.7882L10.8443 16.9452C10.8161 16.9869 10.7557 17.0963 10.7181 17.1092C10.6706 17.0576 10.653 16.6008 10.6454 16.4917C10.6377 16.3813 10.6301 16.2711 10.6224 16.16C10.6188 16.1076 10.6163 16.0535 10.6141 15.9997C10.6125 15.959 10.6204 15.8529 10.5968 15.8354C10.5696 15.8199 8.63211 15.8059 8.41961 15.8045L8.45106 16.8977ZM7.95137 8.3265C8.23605 8.33991 8.7728 8.31181 8.96941 8.34506C9.06291 8.36087 9.10821 8.36787 9.14262 8.44545C9.38704 8.99622 9.67256 9.84573 9.88863 10.4331C9.93976 10.5721 9.98392 10.7001 10.0334 10.837C10.0817 10.9703 10.1247 11.1143 10.1771 11.2417C10.2551 11.4317 10.3825 11.8261 10.461 12.0469L11.0315 13.6707C11.0791 13.8053 11.1269 13.9389 11.1742 14.0763C11.2516 14.3012 11.2459 14.3094 11.5564 14.3052L12.3819 14.2827C12.3961 14.2673 12.3848 14.2798 12.395 14.2646L14.2973 9.09438C14.3294 9.0068 14.5525 8.38368 14.5731 8.35672L15.7412 8.32347L15.7097 7.18085L13.6568 7.15295C13.6321 7.25288 13.5838 7.37583 13.5497 7.47612L12.7857 9.73748C12.571 10.3806 12.3506 11.0318 12.1244 11.6699C12.0904 11.766 11.9298 12.2551 11.8935 12.301C11.8004 12.2075 10.7554 9.03769 10.5599 8.47528C10.4855 8.26111 10.415 8.04706 10.3417 7.82872C10.2704 7.61627 10.1888 7.39683 10.1242 7.18268C9.97522 7.16829 9.24887 7.16756 9.04122 7.16504C8.86007 7.16284 8.67935 7.16101 8.4987 7.15965C8.3701 7.15865 8.05832 7.13897 7.95131 7.15786L7.95137 8.3265ZM22.5189 12.9357C22.497 12.9043 21.6785 12.2575 21.6175 12.2289C21.5651 12.2516 21.3854 12.428 21.3215 12.4866C21.08 12.7082 20.9035 12.838 20.5665 12.9883C20.1176 13.1886 19.5398 13.2391 19.0291 13.1032C18.1456 12.868 17.5186 12.135 17.3303 11.1653C17.1845 10.4146 17.3792 9.57113 17.8381 9.02564C17.9262 8.92106 17.9484 8.88279 18.0527 8.78451C18.0908 8.74858 18.1261 8.70931 18.1675 8.67578C18.211 8.64048 18.2462 8.60444 18.2936 8.57022C18.7039 8.27413 19.1166 8.13404 19.653 8.12527C20.009 8.11945 20.4765 8.18908 20.7966 8.33875L21.1015 8.48619V9.71528L22.3111 9.71718L22.3111 7.95464C22.2871 7.94219 22.0603 7.74308 21.9101 7.65054C21.4886 7.39085 20.8999 7.11942 20.3925 7.05537C19.4869 6.94108 18.7197 6.98446 17.9898 7.36904C17.726 7.50803 17.4305 7.70102 17.2117 7.90591C16.9319 8.16782 16.7406 8.3966 16.5307 8.73308C15.7004 10.0636 15.8273 11.8468 16.8058 13.0323C17.1869 13.4941 17.7274 13.9281 18.4798 14.1866C19.2367 14.4467 20.1646 14.4099 20.9173 14.1623C21.3944 14.0054 21.8535 13.641 22.1922 13.3202C22.3007 13.2174 22.4168 13.0618 22.5189 12.9357Z" fill="white"/>
</svg>
