<svg width="30" height="30" viewBox="0 0 30 30" fill="none" xmlns="http://www.w3.org/2000/svg">
<path d="M29.5 15C29.5 23.0081 23.0081 29.5 15 29.5C6.99187 29.5 0.5 23.0081 0.5 15C0.5 6.99187 6.99187 0.5 15 0.5C23.0081 0.5 29.5 6.99187 29.5 15Z" stroke="white"/>
<path fill-rule="evenodd" clip-rule="evenodd" d="M11.4537 10.9649C11.3169 11.0733 10.3499 11.4403 10.0602 11.5709C9.57911 11.7878 9.13169 11.979 8.65135 12.1905C7.17622 12.8401 5.96448 13.3869 4.52083 14.146C3.89752 14.4737 3.78874 14.8053 4.44118 15.1875C5.14411 15.5993 6.61038 16.1008 7.43175 16.2909C9.01695 16.6577 9.44047 16.4231 10.5999 15.733C11.441 15.2323 12.1264 14.7662 13.0598 14.1396L16.6456 11.6424C16.9025 11.4639 17.6358 10.9214 18.0255 11.004C18.2136 11.3667 17.6797 11.7904 17.3901 12.0847C16.3578 13.134 15.5285 13.8099 14.4946 14.7974C14.17 15.1075 12.8345 16.3073 12.601 16.6132C12.3749 16.9095 12.0292 17.4874 12.3037 18.0212C12.4531 18.3116 13.0155 18.6432 13.3529 18.8683C14.0774 19.3517 18.5367 22.4638 18.952 22.5871C19.4973 22.749 20.0541 22.5309 20.3778 22.2338C20.9958 21.6667 20.9628 20.2617 21.1855 19.3304C21.2282 18.7946 21.371 18.2168 21.4515 17.7003C21.8757 14.9804 22.6843 10.708 22.8753 8.13208C22.922 7.50347 22.7751 7.1184 22.1836 7.02029C21.3227 6.87749 19.996 7.52616 19.3077 7.78935C18.4434 8.11985 17.5829 8.47052 16.6801 8.8288L11.4537 10.9649Z" fill="white"/>
</svg>
