<svg width="30" height="30" viewBox="0 0 30 30" fill="none" xmlns="http://www.w3.org/2000/svg">
<path d="M29.5 15C29.5 23.0081 23.0081 29.5 15 29.5C6.99187 29.5 0.5 23.0081 0.5 15C0.5 6.99187 6.99187 0.5 15 0.5C23.0081 0.5 29.5 6.99187 29.5 15Z" stroke="white"/>
<path fill-rule="evenodd" clip-rule="evenodd" d="M12.7942 16.7851C12.2058 16.85 11.9652 16.5011 11.701 16.1957C10.9578 15.3364 10.4013 14.2864 9.88275 13.2277C8.30642 10.0097 9.56649 10.2312 6.49576 10.2312C6.04518 10.2312 5.36218 10.1388 5.19298 10.5294C4.98016 11.0207 5.56003 12.575 5.76571 13.0889C6.47979 14.873 7.59882 16.6479 8.65951 18.1537C9.90714 19.9248 12.1103 21.6757 14.4666 21.9062C14.8937 21.9479 15.6432 21.9572 16.0214 21.8697C16.5594 21.7452 16.6686 21.5348 16.6686 20.9387C16.6685 20.4068 16.6697 19.8748 16.6675 19.343C16.6649 18.7395 16.6389 18.3687 17.3459 18.4342C17.9559 18.4907 18.9091 19.3665 19.2542 19.6985C21.7393 22.0895 20.5426 21.937 23.416 21.9328C23.9199 21.932 24.5718 22.0073 24.7857 21.6418C25.2761 20.8036 22.9553 18.4157 22.3615 17.826C21.4721 16.9426 21.0162 16.7237 21.5443 15.9262C22.272 14.8274 24.3309 11.9479 24.446 10.8534C24.5119 10.2274 24.0091 10.2296 23.4675 10.2313C22.9363 10.233 22.4043 10.2322 21.8731 10.2304C21.2769 10.2283 20.9674 10.2964 20.7332 10.689C20.5687 10.965 20.3878 11.4528 20.2261 11.781C19.6107 13.03 18.6061 14.7817 17.6536 15.5875C16.4333 16.6199 16.6682 14.9391 16.6681 13.9944C16.6679 13.0623 16.7488 11.698 16.657 10.8176C16.5915 10.1904 16.2221 10.2298 15.6502 10.2312C15.2191 10.2322 12.6807 10.2001 12.4774 10.2551C12.0304 10.3762 12.017 10.7818 12.352 11.2215C13.0088 12.0835 12.9719 12.4358 12.972 13.7887C12.972 14.5533 13.1102 16.3034 12.7942 16.7851Z" fill="white"/>
</svg>
