<svg width="30" height="30" viewBox="0 0 30 30" fill="none" xmlns="http://www.w3.org/2000/svg">
<path d="M29.5 15C29.5 23.0081 23.0081 29.5 15 29.5C6.99187 29.5 0.5 23.0081 0.5 15C0.5 6.99187 6.99187 0.5 15 0.5C23.0081 0.5 29.5 6.99187 29.5 15Z" stroke="white"/>
<path d="M19 10.4286H20.1429M11.5714 7H18.4286C20.9533 7 23 9.0467 23 11.5714V18.4286C23 20.9533 20.9533 23 18.4286 23H11.5714C9.0467 23 7 20.9533 7 18.4286V11.5714C7 9.0467 9.0467 7 11.5714 7ZM15 18.4286C13.1065 18.4286 11.5714 16.8935 11.5714 15C11.5714 13.1065 13.1065 11.5714 15 11.5714C16.8935 11.5714 18.4286 13.1065 18.4286 15C18.4286 16.8935 16.8935 18.4286 15 18.4286Z" stroke="white"/>
</svg>
