<svg width="30" height="30" viewBox="0 0 30 30" fill="none" xmlns="http://www.w3.org/2000/svg">
<path d="M3.79959 23.4008L4.2468 23.6244L4.38512 23.3478L4.19935 23.1005L3.79959 23.4008ZM6.59918 26.2004L6.8995 25.8006L6.65221 25.6149L6.37557 25.7532L6.59918 26.2004ZM1 29L0.552786 28.7764C0.456539 28.9689 0.494266 29.2014 0.646447 29.3536C0.798627 29.5057 1.03111 29.5435 1.22361 29.4472L1 29ZM9 9L8.72265 8.58397C8.58355 8.67671 8.5 8.83282 8.5 9H9ZM21 21V21.5C21.1672 21.5 21.3233 21.4164 21.416 21.2773L21 21ZM12.5085 10.0511L13.0017 9.96889H13.0017L12.5085 10.0511ZM12.7874 11.7244L12.2942 11.8066H12.2942L12.7874 11.7244ZM11.924 13.7173L12.2014 14.1333L11.924 13.7173ZM21.2842 20.5737L21.7002 20.851L21.2842 20.5737ZM19.9489 17.4915L20.0311 16.9983V16.9983L19.9489 17.4915ZM18.2756 17.2126L18.1934 17.7058L18.2756 17.2126ZM16.2827 18.076L15.8667 17.7986L16.2827 18.076ZM0.5 15C0.5 18.2641 1.57911 21.2775 3.39983 23.7011L4.19935 23.1005C2.50427 20.8441 1.5 18.0401 1.5 15H0.5ZM15 0.5C6.99187 0.5 0.5 6.99187 0.5 15H1.5C1.5 7.54416 7.54416 1.5 15 1.5V0.5ZM29.5 15C29.5 6.99187 23.0081 0.5 15 0.5V1.5C22.4558 1.5 28.5 7.54416 28.5 15H29.5ZM15 29.5C23.0081 29.5 29.5 23.0081 29.5 15H28.5C28.5 22.4558 22.4558 28.5 15 28.5V29.5ZM6.29886 26.6002C8.72247 28.4209 11.7359 29.5 15 29.5V28.5C11.9599 28.5 9.15587 27.4957 6.8995 25.8006L6.29886 26.6002ZM1.22361 29.4472L6.82279 26.6476L6.37557 25.7532L0.776393 28.5528L1.22361 29.4472ZM3.35238 23.1772L0.552786 28.7764L1.44721 29.2236L4.2468 23.6244L3.35238 23.1772ZM8.5 9V11H9.5V9H8.5ZM19 21.5H21V20.5H19V21.5ZM8.5 11C8.5 16.799 13.201 21.5 19 21.5V20.5C13.7533 20.5 9.5 16.2467 9.5 11H8.5ZM9.27735 9.41603L9.70368 9.13181L9.14898 8.29976L8.72265 8.58397L9.27735 9.41603ZM12.0153 10.1333L12.2942 11.8066L13.2806 11.6422L13.0017 9.96889L12.0153 10.1333ZM11.6467 13.3013L9.72265 14.584L10.2774 15.416L12.2014 14.1333L11.6467 13.3013ZM12.2942 11.8066C12.3912 12.3889 12.1378 12.9739 11.6467 13.3013L12.2014 14.1333C13.0199 13.5876 13.4423 12.6126 13.2806 11.6422L12.2942 11.8066ZM9.70368 9.13181C10.6094 8.52802 11.8364 9.05961 12.0153 10.1333L13.0017 9.96889C12.7035 8.17942 10.6584 7.29345 9.14898 8.29976L9.70368 9.13181ZM21.416 21.2773L21.7002 20.851L20.8682 20.2963L20.584 20.7227L21.416 21.2773ZM20.0311 16.9983L18.3578 16.7194L18.1934 17.7058L19.8667 17.9847L20.0311 16.9983ZM15.8667 17.7986L14.584 19.7227L15.416 20.2773L16.6987 18.3533L15.8667 17.7986ZM18.3578 16.7194C17.3874 16.5577 16.4124 16.9801 15.8667 17.7986L16.6987 18.3533C17.0261 17.8622 17.6111 17.6088 18.1934 17.7058L18.3578 16.7194ZM21.7002 20.851C22.7065 19.3416 21.8206 17.2965 20.0311 16.9983L19.8667 17.9847C20.9404 18.1636 21.472 19.3906 20.8682 20.2963L21.7002 20.851Z" fill="white"/>
</svg>
