<svg width="212" height="30" viewBox="0 0 212 30" fill="none" xmlns="http://www.w3.org/2000/svg">
<path d="M14.6041 6.64268C14.5882 6.59484 14.5723 6.55496 14.5644 6.52307C14.5247 6.39547 14.4771 6.27586 14.3977 6.15624C14.3342 6.06055 14.2548 5.97283 14.1596 5.91701C14.0247 5.82929 13.9771 5.7017 13.9691 5.55815C13.9532 5.41461 13.9691 5.27107 14.0009 5.13551C14.0644 4.89627 14.1755 4.69691 14.3898 4.56932C14.4533 4.52945 14.5247 4.5135 14.5961 4.48957C14.6834 4.46565 14.7311 4.52147 14.7787 4.57729C14.8739 4.70489 14.9692 4.83248 15.0247 4.98399C15.0723 5.09564 15.112 5.20728 15.12 5.3269C15.12 5.37474 15.1438 5.42259 15.1358 5.47044C15.1358 5.66182 15.0962 5.84524 15.0247 6.02067C14.9454 6.20409 14.8422 6.36358 14.7231 6.51509C14.6914 6.55497 14.6517 6.59484 14.612 6.64268H14.6041Z" fill="#282828"/>
<path d="M14.1598 6.17213C14.0407 6.26782 13.9217 6.33162 13.7709 6.32365C13.6915 6.32365 13.6677 6.2758 13.6598 6.20403C13.6598 6.07644 13.6518 5.95682 13.6598 5.82923C13.6677 5.70961 13.6915 5.58999 13.7709 5.4624C13.7709 5.48633 13.7709 5.50227 13.7709 5.51822C13.7709 5.60594 13.7709 5.69366 13.7868 5.77341C13.8026 5.86113 13.8661 5.92492 13.9296 5.98074C14.0011 6.03657 14.0725 6.10834 14.1519 6.17213H14.1598Z" fill="#282828"/>
<path d="M13.4772 4.15479C13.6122 4.17073 13.6995 4.25845 13.7074 4.38605C13.7153 4.50566 13.6042 4.62528 13.4772 4.61731C13.3423 4.61731 13.2471 4.52161 13.2471 4.38605C13.2471 4.2425 13.3503 4.16276 13.4772 4.15479ZM13.4772 4.51364C13.5566 4.51364 13.636 4.44984 13.636 4.36212C13.636 4.2744 13.5566 4.20263 13.4852 4.21061C13.3979 4.21061 13.3264 4.28238 13.3264 4.36212C13.3264 4.40199 13.3503 4.44187 13.382 4.47376C13.4137 4.50566 13.4455 4.51364 13.4852 4.51364H13.4772Z" fill="#282828"/>
<path d="M13.4853 4.44188C13.4295 4.44188 13.3896 4.402 13.3896 4.34618C13.3896 4.29834 13.4375 4.25049 13.4933 4.25049C13.5332 4.25049 13.589 4.30631 13.589 4.35416C13.589 4.402 13.5332 4.44188 13.4853 4.44188Z" fill="#282828"/>
<path d="M14.596 4.04306C14.4928 3.92344 14.3579 3.85965 14.215 3.8118C14.1356 3.7799 14.0483 3.76395 13.961 3.74003C13.8499 3.71611 13.7388 3.68421 13.6277 3.67624C13.4769 3.66826 13.3261 3.67624 13.1753 3.67624C13.0006 3.67624 12.834 3.70813 12.6673 3.75598C12.5562 3.78788 12.4451 3.83573 12.3339 3.8756C12.1831 3.93142 12.0482 4.01914 11.9133 4.11483C11.7069 4.26635 11.5323 4.44179 11.3895 4.64912C11.318 4.75279 11.2625 4.87241 11.191 4.97608C11.1275 5.07177 11.0482 5.16746 10.9767 5.26316C10.8894 5.36683 10.6275 5.56619 10.5005 5.6858C10.3894 5.7496 10.2703 5.79745 10.1354 5.82137C9.84175 5.89314 9.51634 5.85327 9.23061 5.72568C9.18299 5.65391 9.12743 5.58214 9.06394 5.51834C8.80996 5.25518 8.5401 5.02392 8.2385 4.81659C7.86547 4.5614 7.50037 4.29027 7.1194 4.04306C6.59556 3.70813 6.05585 3.38118 5.51615 3.0622C4.95263 2.73525 4.38117 2.41627 3.80971 2.10526C3.46049 1.91388 3.09539 1.74641 2.73823 1.57097C2.37313 1.38756 2.02391 1.17225 1.71437 0.893142C1.42071 0.62201 1.11117 0.366826 0.809564 0.103668C0.769879 0.0717703 0.730195 0.0318979 0.69051 0L0.674636 0.015949C0.698447 0.0956938 0.714321 0.175439 0.746069 0.255183C0.849248 0.502392 0.936554 0.757576 1.05561 0.99681C1.14291 1.18022 1.26197 1.35566 1.38896 1.51515C1.47626 1.63477 1.60325 1.72249 1.73024 1.85008C1.11117 1.61085 0.507962 1.38756 0 0.964912C0.174612 1.35566 0.420656 1.69059 0.722258 1.98565C1.02386 2.2807 1.37308 2.50399 1.80168 2.59171C1.30165 2.64753 0.801627 2.64753 0.317476 2.45614C0.79369 3.03828 1.36515 3.437 2.15884 3.437C2.10328 3.45295 2.04772 3.4689 2.0001 3.48485C1.84136 3.50877 1.67469 3.54067 1.51595 3.55662C1.36515 3.57257 1.21435 3.58054 1.06354 3.58054C1.00799 3.58054 0.952428 3.55662 0.904807 3.54864C0.888933 3.54864 0.857185 3.54864 0.849248 3.54864C0.841311 3.56459 0.841311 3.59649 0.849248 3.61244C0.952428 3.83573 1.1191 3.97129 1.34134 4.06699C1.5477 4.1547 1.76199 4.17065 1.97629 4.1866C2.06359 4.1866 2.1509 4.17065 2.23027 4.17065C2.24614 4.17065 2.26202 4.17863 2.26995 4.21053C1.96041 4.2504 1.64294 4.29027 1.30165 4.33812C1.67469 4.5933 2.07947 4.73684 2.48425 4.84848C2.89697 4.96013 3.31762 5.05582 3.75415 5.0319C3.32556 5.19936 2.92078 5.42265 2.43663 5.45454C2.516 5.53429 2.58743 5.61403 2.67474 5.67783C2.84935 5.80542 3.03983 5.87719 3.24619 5.92504C3.42874 5.96491 3.61923 5.99681 3.80971 6.02073C4.0002 6.03668 4.18275 6.03668 4.37323 6.03668C4.37323 6.05263 4.37323 6.06061 4.38117 6.07655C4.01607 6.21212 3.65097 6.34769 3.26207 6.49123C3.83352 6.83413 4.42879 6.99362 5.08755 6.874C5.08755 6.88198 5.08755 6.89793 5.09549 6.9059C4.76214 7.04944 4.42085 7.19298 4.07957 7.33652C4.29386 7.52791 4.56372 7.59171 4.84945 7.6236C5.13517 7.6555 5.41297 7.60765 5.68282 7.52791C5.68282 7.53588 5.69076 7.55183 5.69869 7.55981C5.42884 7.67145 5.15105 7.78309 4.85738 7.91069C4.92088 7.95056 4.9685 7.9984 5.01612 8.01435C5.15105 8.05423 5.28598 8.10207 5.4209 8.126C5.59551 8.14992 5.77806 8.17384 5.95267 8.17384C6.16697 8.17384 6.37333 8.14194 6.57969 8.11802C6.74636 8.10207 6.92098 8.07815 7.09559 8.05422C7.08765 8.07017 7.07971 8.07815 7.07178 8.08612C6.53207 8.5008 5.88918 8.75598 5.23042 8.97129C6.28602 9.13078 6.63525 8.98724 7.28607 8.58852C7.30195 8.58054 6.9051 9.05901 6.88129 9.08293C6.51619 9.46571 5.86537 9.5933 5.23042 9.84848C5.73044 9.91228 6.61937 10.1595 7.12734 9.98405L6.92891 10.2472C7.09559 10.2951 5.73044 10.7018 5.84156 10.8373C5.92886 10.941 7.04003 11.0526 7.46069 11.1722C8.28612 11.9059 8.07976 11.9218 7.70673 12.5439C7.1194 13.5088 4.2383 17.9665 4.2383 17.9665C4.2383 17.9665 3.9367 18.4848 4.43673 18.2536C4.40498 18.2855 9.14331 12.6156 9.80207 11.7703C9.83382 11.7703 9.85763 11.7624 9.88938 11.7544C9.99256 11.7305 10.0957 11.6986 10.1989 11.6667C10.3418 11.6188 10.4926 11.5789 10.6354 11.5231C10.7942 11.4593 10.937 11.3796 11.0878 11.2998C11.2625 11.2121 11.4212 11.0925 11.572 10.9649C11.818 10.7655 12.0244 10.5343 12.1911 10.2632C12.2784 10.1196 12.3657 9.97608 12.4371 9.82456C12.4927 9.71292 12.5403 9.58533 12.58 9.46571C12.6197 9.34609 12.6594 9.2185 12.6911 9.09091C12.7228 8.97129 12.7467 8.85167 12.7705 8.73206C12.7943 8.62041 12.8022 8.5008 12.8181 8.38118C12.8419 8.16587 12.8578 7.95853 12.8737 7.74322C12.8737 7.67943 12.8737 7.61563 12.8895 7.55981C12.9133 7.48804 12.9451 7.40829 12.9848 7.3445C13.0245 7.27273 13.08 7.20893 13.1356 7.14513C13.2467 7.02552 13.3816 6.9378 13.453 6.78628C13.4769 6.73046 13.453 6.64274 13.3975 6.61882C13.334 6.5949 13.2705 6.57097 13.207 6.563C13.0165 6.5311 12.9133 6.39553 12.8816 6.23604C12.8578 6.11643 12.8657 5.99681 12.8975 5.86922C12.9371 5.74163 12.9848 5.62201 13.0641 5.51834C13.1594 5.38277 13.2864 5.27113 13.4292 5.19139C13.5165 5.14354 13.6197 5.11164 13.715 5.07974C13.7785 5.05582 13.8261 5.04785 13.8499 4.9681C13.8816 4.85646 13.9451 4.75279 14.0086 4.6571C14.0721 4.56938 14.1594 4.48166 14.2547 4.41786C14.3499 4.34609 14.461 4.30622 14.588 4.29824C14.596 4.29824 14.6118 4.2823 14.6118 4.27432C14.6118 4.19458 14.6039 4.11483 14.5483 4.04306H14.596ZM13.9769 4.42584C13.9134 4.52153 13.8499 4.60925 13.8023 4.70494C13.6912 4.92025 13.5324 5.07974 13.3181 5.19936C13.2308 5.24721 13.0721 5.24721 13.0086 5.14354C12.9768 5.07974 12.9451 5.0319 12.953 4.95215C12.961 4.89633 12.9768 4.85646 13.0086 4.80861C13.0641 4.71292 13.0562 4.68899 12.961 4.61722C12.9054 4.56938 12.8498 4.51356 12.8022 4.44976C12.7625 4.39394 12.7387 4.30622 12.7387 4.23445C12.7387 4.17065 12.7784 4.13078 12.8419 4.11483C12.953 4.09091 13.0641 4.07496 13.1753 4.03509C13.3737 3.96332 13.5959 3.93939 13.8102 3.97129C13.9134 3.98724 13.9928 4.05104 14.0324 4.1547C14.0642 4.24242 14.0324 4.32217 13.9928 4.39394C13.9928 4.40191 13.9769 4.40989 13.9769 4.42584Z" fill="#282828"/>
<path d="M11.7305 11.3237C11.7305 11.3237 13.7861 9.60917 14.3258 10.1754C14.2862 10.1355 13.7703 8.66818 11.7305 11.3237Z" fill="#282828"/>
<path d="M15.8664 29.9919L10.3899 29.9999V29.019H15.3505L17.6363 25.6059V13.1179L9.06445 13.1259L9.85021 12.153L18.6046 12.145L18.6125 25.909L15.8664 29.9919Z" fill="#282828"/>
<path d="M1.78581 25.6222V13.1262H7.08766L7.69086 12.1533H0.80957L0.817507 25.9093L3.397 30.0002H9.42904V29.0193L3.93671 29.0273L1.78581 25.6222Z" fill="#282828"/>
<path d="M3.75404 15.1913H5.78589L6.34941 14.3062L2.87305 14.3141L2.88098 16.7623H3.75404V15.1913Z" fill="#282828"/>
<path d="M9.12738 27.6956V26.8184H4.84145L3.7541 25.2395L3.76997 25.2156L10.1671 16.1566L10.1592 14.3145H8.07971L7.39714 15.1916H9.28612V15.8775L2.68262 25.2395L4.38111 27.6956H9.12738Z" fill="#282828"/>
<path d="M10.3737 26.7627L10.3658 16.356L9.39746 17.7355L9.4054 27.6877L10.3816 27.6797L10.3737 26.7627Z" fill="#282828"/>
<path d="M10.4453 14.3145V15.2873H15.5011V25.2554L14.509 26.7546L10.6437 26.7626V27.6797L15.0249 27.6717L16.4694 25.5505V14.3145H10.4453Z" fill="#282828"/>
<path d="M29.6865 14.62C29.4464 13.8099 29.2405 13.2928 28.966 13.0688C28.743 12.9137 28.3656 12.8792 28.1769 12.8792C27.9882 12.8792 27.8682 12.8619 27.8682 12.6896C27.8682 12.5345 28.0226 12.5 28.297 12.5C29.3263 12.5 30.3898 12.5689 30.5785 12.5689C30.7672 12.5689 31.625 12.5 32.7571 12.5C33.0316 12.5 33.1688 12.5689 33.1688 12.6896C33.1688 12.8619 33.0145 12.8792 32.8086 12.8792C32.6542 12.8792 32.4484 12.8792 32.3111 12.9654C32.1396 13.0515 32.0881 13.2067 32.0881 13.448C32.0881 13.7237 32.2768 14.4648 32.517 15.4473C32.8429 16.8778 34.6784 23.479 35.0215 24.7028H35.073L38.8812 13.3618C39.0699 12.7585 39.2072 12.5862 39.3787 12.5862C39.6017 12.5862 39.6875 12.9137 39.9448 13.6031L44.0275 24.5476H44.079C44.4392 23.0826 46.0003 17.3432 46.6864 14.7923C46.8237 14.2925 46.8751 13.8271 46.8751 13.5341C46.8751 13.1894 46.7036 12.8792 45.9316 12.8792C45.7429 12.8792 45.6057 12.8102 45.6057 12.6896C45.6057 12.5345 45.7601 12.5 46.0517 12.5C47.0981 12.5 47.9215 12.5689 48.0931 12.5689C48.2303 12.5689 49.0709 12.5 49.7227 12.5C49.9457 12.5 50.083 12.5517 50.083 12.6724C50.083 12.8275 49.9801 12.8964 49.8085 12.8964C49.6198 12.8964 49.3454 12.9137 49.1223 12.9998C48.6592 13.1894 48.4362 14.0684 48.0245 15.3094C47.1153 18.0498 45.0568 24.9785 44.0961 28.236C43.8731 28.9944 43.7874 29.2529 43.53 29.2529C43.3413 29.2529 43.2213 28.9944 42.9296 28.1843L38.8469 17.2742H38.8126C38.4352 18.3773 35.8278 26.0988 34.9872 28.0982C34.6098 28.9944 34.524 29.2529 34.2839 29.2529C34.0952 29.2529 34.0094 29.0116 33.8379 28.4429L29.6694 14.62H29.6865Z" fill="#282828"/>
<path d="M53.5138 18.8082C53.5138 15.499 53.5138 14.8957 53.4795 14.1891C53.4451 13.4479 53.2908 13.1032 52.6389 12.9481C52.4845 12.9136 52.1414 12.8792 51.8669 12.8792C51.6439 12.8792 51.541 12.8275 51.541 12.6896C51.541 12.5517 51.6783 12.5 51.9699 12.5C52.5017 12.5 53.0677 12.5172 53.5652 12.5172C54.0799 12.5345 54.5259 12.5689 54.8003 12.5689C55.435 12.5689 59.3291 12.5689 59.7065 12.5517C60.0839 12.5 60.3926 12.4655 60.547 12.4138C60.65 12.3966 60.77 12.3276 60.8558 12.3276C60.9416 12.3276 60.9759 12.4138 60.9759 12.5172C60.9759 12.6723 60.873 12.9309 60.8215 13.9305C60.8043 14.1546 60.77 15.1026 60.7186 15.3611C60.7014 15.4645 60.6671 15.6024 60.5299 15.6024C60.3926 15.6024 60.3583 15.499 60.3583 15.2921C60.3583 15.137 60.3412 14.7751 60.2382 14.5165C60.101 14.1201 59.9123 13.8616 58.9174 13.7237C58.5914 13.672 56.5158 13.6375 56.1384 13.6375C56.0354 13.6375 56.0011 13.7065 56.0011 13.8616V19.377C56.0011 19.5321 56.0183 19.6183 56.1384 19.6183C56.5672 19.6183 58.8316 19.6183 59.2776 19.5666C59.7408 19.5321 60.0496 19.4631 60.2211 19.2391C60.3583 19.0667 60.4441 18.9633 60.5299 18.9633C60.6156 18.9633 60.6671 19.015 60.6671 19.1357C60.6671 19.2563 60.5813 19.6183 60.5127 20.7213C60.4956 21.1522 60.4269 22.0312 60.4269 22.1864C60.4269 22.3587 60.4269 22.6 60.2554 22.6C60.1182 22.6 60.0839 22.5138 60.0839 22.4104C60.0667 22.1864 60.0667 21.9106 59.9981 21.6348C59.8952 21.2039 59.6207 20.8765 58.9002 20.7903C58.5228 20.7386 56.5844 20.7213 56.1041 20.7213C56.0011 20.7213 55.984 20.8075 55.984 20.9454V22.669C55.984 23.4101 55.9668 25.4094 55.984 26.0471C56.0183 27.5466 56.3442 27.8741 58.3341 27.8741C58.8487 27.8741 59.6722 27.8741 60.1868 27.6155C60.7014 27.357 60.9244 26.8917 61.0617 26.0126C61.096 25.7713 61.1474 25.6852 61.2847 25.6852C61.439 25.6852 61.439 25.8575 61.439 26.0816C61.439 26.5814 61.2847 28.0637 61.1817 28.4946C61.0445 29.0633 60.873 29.0633 60.1182 29.0633C58.6429 29.0633 57.5622 29.0116 56.7216 28.9944C55.8811 28.9427 55.2635 28.9254 54.6803 28.9254C54.4573 28.9254 54.0284 28.9255 53.5652 28.9427C53.1192 28.9427 52.6046 28.9944 52.21 28.9944C51.9527 28.9944 51.8155 28.9254 51.8155 28.7703C51.8155 28.6669 51.9013 28.598 52.1243 28.598C52.4159 28.598 52.656 28.5463 52.8276 28.5118C53.2221 28.4256 53.3251 27.943 53.3937 27.3225C53.4966 26.4091 53.4966 24.6855 53.4966 22.6862V18.8599L53.5138 18.8082Z" fill="#282828"/>
<path d="M69.1417 22.6345C69.1417 25.4266 69.1417 26.9261 69.5534 27.3226C69.8793 27.65 70.3939 27.8051 71.9207 27.8051C72.9671 27.8051 73.7219 27.7879 74.2193 27.2019C74.4595 26.9261 74.6825 26.3057 74.734 25.892C74.7511 25.7024 74.7854 25.5645 74.957 25.5645C75.0942 25.5645 75.1114 25.6679 75.1114 25.9265C75.1114 26.1678 74.9741 27.8051 74.8197 28.4256C74.6997 28.9082 74.5967 29.0116 73.5846 29.0116C72.178 29.0116 71.1487 28.9599 70.2739 28.9427C69.399 28.891 68.6785 28.8738 67.8723 28.8738C67.6492 28.8738 67.2204 28.8737 66.7572 28.891C66.3112 28.891 65.7966 28.9427 65.402 28.9427C65.1447 28.9427 65.0075 28.8738 65.0075 28.7186C65.0075 28.6152 65.0932 28.5463 65.3163 28.5463C65.6079 28.5463 65.848 28.4946 66.0196 28.4601C66.4141 28.3739 66.5171 27.8913 66.5857 27.2708C66.6886 26.3574 66.6886 24.6338 66.6886 22.6345V18.8082C66.6886 15.499 66.6886 14.8957 66.6543 14.1891C66.62 13.448 66.4656 13.1032 65.8137 12.9481C65.6593 12.9136 65.4192 12.8792 65.1619 12.8792C64.9389 12.8792 64.8359 12.8275 64.8359 12.6896C64.8359 12.5517 64.9732 12.5 65.2648 12.5C66.1911 12.5 67.4262 12.5689 67.958 12.5689C68.4212 12.5689 69.8622 12.5 70.6341 12.5C70.9086 12.5 71.0458 12.5517 71.0458 12.6896C71.0458 12.8275 70.9257 12.8792 70.6856 12.8792C70.4625 12.8792 70.1538 12.8964 69.9136 12.9481C69.3818 13.0515 69.2274 13.4307 69.1931 14.1891C69.1588 14.8785 69.1588 15.499 69.1588 18.8082V22.6345H69.1417Z" fill="#282828"/>
<path d="M81.8013 22.6345C81.8013 25.4266 81.8013 26.9261 82.213 27.3226C82.539 27.65 83.0536 27.8051 84.5803 27.8051C85.6267 27.8051 86.3815 27.7879 86.879 27.2019C87.1192 26.9261 87.3422 26.3057 87.3936 25.892C87.4108 25.7024 87.4451 25.5645 87.6166 25.5645C87.7539 25.5645 87.771 25.6679 87.771 25.9265C87.771 26.1678 87.6338 27.8051 87.4794 28.4256C87.3593 28.9082 87.2564 29.0116 86.2443 29.0116C84.8376 29.0116 83.8084 28.9599 82.9335 28.9427C82.0586 28.891 81.3382 28.8738 80.5319 28.8738C80.3089 28.8738 79.8801 28.8737 79.4169 28.891C78.9709 28.891 78.4562 28.9427 78.0617 28.9427C77.8044 28.9427 77.6671 28.8738 77.6671 28.7186C77.6671 28.6152 77.7529 28.5463 77.9759 28.5463C78.2675 28.5463 78.5077 28.4946 78.6793 28.4601C79.0738 28.3739 79.1767 27.8913 79.2453 27.2708C79.3483 26.3574 79.3483 24.6338 79.3483 22.6345V18.8082C79.3483 15.499 79.3483 14.8957 79.314 14.1891C79.2796 13.448 79.1253 13.1032 78.4734 12.9481C78.319 12.9136 78.0788 12.8792 77.8215 12.8792C77.5985 12.8792 77.4956 12.8275 77.4956 12.6896C77.4956 12.5517 77.6328 12.5 77.9245 12.5C78.8508 12.5 80.0859 12.5689 80.6177 12.5689C81.0809 12.5689 82.5218 12.5 83.2938 12.5C83.5682 12.5 83.7055 12.5517 83.7055 12.6896C83.7055 12.8275 83.5854 12.8792 83.3452 12.8792C83.1222 12.8792 82.8134 12.8964 82.5733 12.9481C82.0415 13.0515 81.8871 13.4307 81.8528 14.1891C81.8185 14.8785 81.8185 15.499 81.8185 18.8082V22.6345H81.8013Z" fill="#282828"/>
<path d="M93.1061 25.9952C93.1404 27.7015 93.3977 28.2531 93.7923 28.4082C94.1182 28.5461 94.4956 28.5633 94.8044 28.5633C95.0274 28.5633 95.1303 28.615 95.1303 28.7357C95.1303 28.908 94.9587 28.9597 94.6843 28.9597C93.4149 28.9597 92.6258 28.8908 92.2484 28.8908C92.0768 28.8908 91.1505 28.9597 90.1212 28.9597C89.8639 28.9597 89.6924 28.9425 89.6924 28.7357C89.6924 28.5978 89.8125 28.5633 90.0012 28.5633C90.2585 28.5633 90.6016 28.5461 90.876 28.4599C91.3907 28.2875 91.4593 27.6498 91.4764 25.7539L91.648 12.8617C91.648 12.4308 91.6994 12.1206 91.9053 12.1206C92.1283 12.1206 92.2998 12.3964 92.6258 12.7928C92.8659 13.0686 95.8508 16.6191 98.7156 19.7904C100.054 21.2727 102.695 24.4095 103.038 24.7542H103.141L102.953 14.9817C102.935 13.6546 102.764 13.2409 102.284 13.0169C101.992 12.879 101.512 12.879 101.237 12.879C100.997 12.879 100.928 12.81 100.928 12.6894C100.928 12.517 101.151 12.4998 101.443 12.4998C102.455 12.4998 103.399 12.5687 103.81 12.5687C104.033 12.5687 104.771 12.4998 105.732 12.4998C105.989 12.4998 106.178 12.517 106.178 12.6894C106.178 12.8273 106.058 12.879 105.817 12.879C105.629 12.879 105.457 12.879 105.234 12.9479C104.685 13.1203 104.531 13.5856 104.514 14.7921L104.291 28.5288C104.291 29.0114 104.205 29.201 104.033 29.201C103.81 29.201 103.587 28.9597 103.364 28.7184C102.129 27.4085 99.6076 24.5647 97.5662 22.324C95.4219 19.98 93.2433 17.2568 92.9002 16.8431H92.8488L93.0718 25.9952H93.1061Z" fill="#282828"/>
<path d="M110.964 18.8082C110.964 15.499 110.964 14.8957 110.93 14.1891C110.895 13.4479 110.741 13.1032 110.089 12.9481C109.935 12.9136 109.592 12.8792 109.317 12.8792C109.094 12.8792 108.991 12.8275 108.991 12.6896C108.991 12.5517 109.128 12.5 109.42 12.5C109.952 12.5 110.518 12.5172 111.015 12.5172C111.53 12.5345 111.976 12.5689 112.251 12.5689C112.885 12.5689 116.779 12.5689 117.157 12.5517C117.534 12.5 117.843 12.4655 117.997 12.4138C118.1 12.3966 118.22 12.3276 118.306 12.3276C118.392 12.3276 118.426 12.4138 118.426 12.5172C118.426 12.6723 118.323 12.9309 118.272 13.9305C118.255 14.1546 118.22 15.1026 118.169 15.3611C118.152 15.4645 118.117 15.6024 117.98 15.6024C117.843 15.6024 117.809 15.499 117.809 15.2921C117.809 15.137 117.791 14.7751 117.688 14.5165C117.551 14.1201 117.363 13.8616 116.368 13.7237C116.042 13.672 113.966 13.6375 113.589 13.6375C113.486 13.6375 113.451 13.7065 113.451 13.8616V19.377C113.451 19.5321 113.468 19.6183 113.589 19.6183C114.017 19.6183 116.282 19.6183 116.728 19.5666C117.191 19.5321 117.5 19.4631 117.671 19.2391C117.809 19.0667 117.894 18.9633 117.98 18.9633C118.066 18.9633 118.117 19.015 118.117 19.1357C118.117 19.2563 118.032 19.6183 117.963 20.7213C117.946 21.1522 117.877 22.0312 117.877 22.1864C117.877 22.3587 117.877 22.6 117.706 22.6C117.568 22.6 117.534 22.5138 117.534 22.4104C117.517 22.1864 117.517 21.9106 117.448 21.6348C117.345 21.2039 117.071 20.8765 116.35 20.7903C115.973 20.7386 114.035 20.7213 113.554 20.7213C113.451 20.7213 113.434 20.8075 113.434 20.9454V22.669C113.434 23.4101 113.417 25.4094 113.434 26.0471C113.468 27.5466 113.794 27.8741 115.784 27.8741C116.299 27.8741 117.122 27.8741 117.637 27.6155C118.152 27.357 118.375 26.8917 118.512 26.0126C118.546 25.7713 118.598 25.6852 118.735 25.6852C118.889 25.6852 118.889 25.8575 118.889 26.0816C118.889 26.5814 118.735 28.0637 118.632 28.4946C118.495 29.0633 118.323 29.0633 117.568 29.0633C116.093 29.0633 115.012 29.0116 114.172 28.9944C113.331 28.9427 112.714 28.9254 112.13 28.9254C111.907 28.9254 111.479 28.9255 111.015 28.9427C110.569 28.9427 110.055 28.9944 109.66 28.9944C109.403 28.9944 109.266 28.9254 109.266 28.7703C109.266 28.6669 109.351 28.598 109.574 28.598C109.866 28.598 110.106 28.5463 110.278 28.5118C110.672 28.4256 110.775 27.943 110.844 27.3225C110.947 26.4091 110.947 24.6855 110.947 22.6862V18.8599L110.964 18.8082Z" fill="#282828"/>
<path d="M123.074 28.6839C122.765 28.5287 122.696 28.4253 122.696 27.9427C122.696 26.7535 122.782 25.4436 122.799 25.0989C122.816 24.7714 122.885 24.5301 123.039 24.5301C123.211 24.5301 123.228 24.7197 123.228 24.892C123.228 25.1678 123.314 25.6332 123.4 25.9951C123.828 27.598 124.995 28.2013 126.213 28.2013C127.98 28.2013 128.838 26.8741 128.838 25.7193C128.838 24.6507 128.546 23.6511 126.916 22.2378L126.007 21.4622C123.846 19.5835 123.108 18.0668 123.108 16.3087C123.108 13.913 124.909 12.1895 127.637 12.1895C128.906 12.1895 129.73 12.4135 130.244 12.5514C130.416 12.5859 130.519 12.6548 130.519 12.8099C130.519 13.0857 130.433 13.7234 130.433 15.4297C130.433 15.9123 130.381 16.0847 130.21 16.0847C130.073 16.0847 130.021 15.9468 130.021 15.6883C130.021 15.4987 129.918 14.8093 129.507 14.2577C129.215 13.8441 128.649 13.1891 127.362 13.1891C125.904 13.1891 125.029 14.1198 125.029 15.4297C125.029 16.4294 125.475 17.1878 127.105 18.5666L127.654 19.032C130.021 21.014 130.879 22.5135 130.879 24.5818C130.879 25.84 130.45 27.3395 129.026 28.3736C128.048 29.063 126.951 29.2699 125.904 29.2699C124.772 29.2699 123.88 29.1147 123.039 28.7011L123.074 28.6839Z" fill="#282828"/>
<path d="M135.271 28.6839C134.962 28.5287 134.894 28.4253 134.894 27.9427C134.894 26.7535 134.979 25.4436 134.996 25.0989C135.014 24.7714 135.082 24.5301 135.237 24.5301C135.408 24.5301 135.425 24.7197 135.425 24.892C135.425 25.1678 135.511 25.6332 135.597 25.9951C136.026 27.598 137.192 28.2013 138.41 28.2013C140.177 28.2013 141.035 26.8741 141.035 25.7193C141.035 24.6507 140.743 23.6511 139.114 22.2378L138.204 21.4622C136.043 19.5835 135.305 18.0668 135.305 16.3087C135.305 13.913 137.106 12.1895 139.834 12.1895C141.103 12.1895 141.927 12.4135 142.441 12.5514C142.613 12.5859 142.716 12.6548 142.716 12.8099C142.716 13.0857 142.63 13.7234 142.63 15.4297C142.63 15.9123 142.579 16.0847 142.407 16.0847C142.27 16.0847 142.218 15.9468 142.218 15.6883C142.218 15.4987 142.116 14.8093 141.704 14.2577C141.412 13.8441 140.846 13.1891 139.56 13.1891C138.101 13.1891 137.227 14.1198 137.227 15.4297C137.227 16.4294 137.673 17.1878 139.302 18.5666L139.851 19.032C142.218 21.014 143.076 22.5135 143.076 24.5818C143.076 25.84 142.647 27.3395 141.223 28.3736C140.246 29.063 139.148 29.2699 138.101 29.2699C136.969 29.2699 136.077 29.1147 135.237 28.7011L135.271 28.6839Z" fill="#282828"/>
<path d="M155.05 19.2733C154.227 18.0495 154.072 17.1533 154.055 16.1881C154.038 14.4645 155.41 12.1895 158.824 12.1895C159.785 12.1895 160.677 12.4135 161.191 12.6548C161.517 12.7927 161.517 12.965 161.517 13.2236C161.517 13.9475 161.363 15.6883 161.294 16.0157C161.26 16.3432 161.174 16.3777 161.054 16.3777C160.934 16.3777 160.917 16.2915 160.917 15.964C160.917 15.3953 160.78 14.7058 160.351 14.1371C159.956 13.62 159.27 13.1546 158.172 13.1546C157.349 13.1546 156.079 13.7924 156.079 15.6366C156.079 17.6876 157.761 19.4284 159.339 21.3588C160.008 22.2033 162.427 24.6335 162.787 24.9955C163.181 24.3922 163.73 22.9789 163.73 21.6345C163.73 21.307 163.644 20.9106 163.353 20.6349C163.096 20.3763 162.684 20.3074 162.392 20.3074C162.272 20.3074 162.152 20.2557 162.152 20.135C162.152 19.9627 162.306 19.911 162.461 19.911C162.941 19.911 163.713 19.9282 164.811 20.0661C165.188 20.1006 165.48 20.2384 165.48 20.497C165.48 22.1688 164.674 24.2026 163.559 25.6504C164.88 26.8397 165.754 27.4429 166.286 27.7876C166.921 28.2013 168.002 28.546 168.379 28.546C168.551 28.546 168.654 28.5632 168.654 28.7356C168.654 28.8734 168.499 28.9251 168.07 28.9251H166.561C164.331 28.9251 163.61 28.6839 161.929 27.2533C161.277 27.9083 159.973 29.2354 157.28 29.2354C153.077 29.2354 151.825 26.3226 151.825 24.4267C151.825 21.8758 153.849 19.8937 155.033 19.2733H155.05ZM161.191 26.5811C160.059 25.4953 158.172 23.4443 157.658 22.841C157.143 22.2378 155.891 20.6693 155.565 20.1178C154.896 20.6693 154.21 21.6862 154.21 23.427C154.21 26.1502 155.942 27.891 157.984 27.891C159.493 27.891 160.797 27.012 161.209 26.5811H161.191Z" fill="#282828"/>
<path d="M173.56 28.6839C173.251 28.5287 173.182 28.4253 173.182 27.9427C173.182 26.7535 173.268 25.4436 173.285 25.0989C173.302 24.7714 173.371 24.5301 173.525 24.5301C173.697 24.5301 173.714 24.7197 173.714 24.892C173.714 25.1678 173.8 25.6332 173.885 25.9951C174.314 27.598 175.481 28.2013 176.699 28.2013C178.466 28.2013 179.323 26.8741 179.323 25.7193C179.323 24.6507 179.032 23.6511 177.402 22.2378L176.493 21.4622C174.331 19.5835 173.594 18.0668 173.594 16.3087C173.594 13.913 175.395 12.1895 178.123 12.1895C179.392 12.1895 180.215 12.4135 180.73 12.5514C180.902 12.5859 181.004 12.6548 181.004 12.8099C181.004 13.0857 180.936 13.7234 180.936 15.4297C180.936 15.9123 180.867 16.0847 180.713 16.0847C180.576 16.0847 180.507 15.9468 180.507 15.6883C180.507 15.4987 180.404 14.8093 179.992 14.2577C179.701 13.8441 179.135 13.1891 177.848 13.1891C176.39 13.1891 175.515 14.1198 175.515 15.4297C175.515 16.4294 175.961 17.1878 177.591 18.5666L178.14 19.032C180.507 21.014 181.365 22.5135 181.365 24.5818C181.365 25.84 180.936 27.3395 179.512 28.3736C178.534 29.063 177.436 29.2699 176.39 29.2699C175.258 29.2699 174.366 29.1147 173.525 28.7011L173.56 28.6839Z" fill="#282828"/>
<path d="M186.837 18.8082C186.837 15.499 186.837 14.8957 186.803 14.1891C186.768 13.448 186.614 13.1032 185.962 12.9481C185.808 12.9136 185.465 12.8792 185.19 12.8792C184.984 12.8792 184.864 12.8275 184.864 12.6896C184.864 12.5517 185.001 12.5 185.293 12.5C186.34 12.5 187.575 12.5689 188.124 12.5689C188.93 12.5689 190.062 12.5 190.971 12.5C193.424 12.5 194.316 13.4135 194.625 13.741C195.054 14.2063 195.603 15.1715 195.603 16.3263C195.603 19.4114 193.561 21.6004 190.783 21.6004C190.68 21.6004 190.474 21.6004 190.371 21.5831C190.268 21.5659 190.131 21.5314 190.131 21.3935C190.131 21.2212 190.268 21.1522 190.68 21.1522C191.777 21.1522 193.304 19.7734 193.304 17.5672C193.304 16.8434 193.253 15.3956 192.155 14.2925C191.452 13.5686 190.645 13.448 190.199 13.448C189.908 13.448 189.616 13.4652 189.427 13.5341C189.324 13.5858 189.273 13.7065 189.273 13.9478V22.6517C189.273 24.651 189.273 26.3746 189.376 27.3053C189.427 27.9086 189.547 28.3912 190.148 28.4773C190.422 28.529 190.851 28.5635 191.143 28.5635C191.349 28.5635 191.452 28.6325 191.452 28.7359C191.452 28.891 191.297 28.9599 191.074 28.9599C189.788 28.9599 188.535 28.891 188.038 28.891C187.592 28.891 186.357 28.9599 185.568 28.9599C185.31 28.9599 185.173 28.891 185.173 28.7359C185.173 28.6325 185.259 28.5635 185.482 28.5635C185.773 28.5635 186.014 28.5118 186.185 28.4773C186.58 28.3912 186.683 27.9086 186.751 27.2881C186.854 26.3746 186.854 24.651 186.854 22.6517V18.8254L186.837 18.8082Z" fill="#282828"/>
<path d="M200.287 23.272C200.184 23.272 200.15 23.3237 200.115 23.4444L199.052 26.564C198.863 27.1156 198.76 27.6326 198.76 27.8912C198.76 28.2876 198.932 28.5633 199.549 28.5633H199.841C200.081 28.5633 200.132 28.615 200.132 28.7357C200.132 28.9081 200.012 28.9598 199.806 28.9598C199.172 28.9598 198.331 28.8908 197.731 28.8908C197.525 28.8908 196.444 28.9598 195.415 28.9598C195.158 28.9598 195.038 28.9081 195.038 28.7357C195.038 28.5978 195.123 28.5633 195.278 28.5633C195.449 28.5633 195.724 28.5461 195.878 28.5116C196.787 28.3738 197.148 27.6326 197.542 26.5468L202.465 12.879C202.706 12.2413 202.826 12 203.014 12C203.186 12 203.306 12.1896 203.512 12.6894C203.975 13.8787 207.131 22.7722 208.384 26.0814C209.121 28.0463 209.705 28.3393 210.116 28.4599C210.408 28.5289 210.699 28.5461 210.94 28.5461C211.094 28.5461 211.197 28.5633 211.197 28.7185C211.197 28.8908 211.025 28.9425 210.288 28.9425C209.55 28.9425 208.143 28.9425 206.582 28.8908C206.222 28.8736 205.999 28.8736 205.999 28.7185C205.999 28.5806 206.085 28.5461 206.274 28.5289C206.411 28.4772 206.548 28.2876 206.445 28.029L204.867 23.4099C204.833 23.3065 204.764 23.2548 204.678 23.2548H200.304L200.287 23.272ZM204.301 22.169C204.404 22.169 204.421 22.1 204.404 22.0311L202.637 16.6536C202.62 16.5674 202.603 16.464 202.534 16.464C202.465 16.464 202.431 16.5674 202.414 16.6536L200.613 22.0138C200.596 22.1 200.613 22.169 200.699 22.169H204.318H204.301Z" fill="#282828"/>
</svg>
